<svg width="26" height="26" viewBox="0 0 26 26" fill="none" xmlns="http://www.w3.org/2000/svg">
<path d="M13.9097 3.02585C10.2386 2.76915 7.05802 5.53401 6.80132 9.20505L6.65483 11.2999C6.6074 11.9783 6.25693 12.9763 5.86732 13.5304L4.45253 15.5567C3.58305 16.8091 4.01989 18.3032 5.4229 18.8825C10.0803 20.802 15.2377 21.1627 20.117 19.91C21.4951 19.5553 22.1839 18.0196 21.5408 16.7516L20.4218 14.5482C20.1131 13.9452 19.9056 12.8982 19.9524 12.2298L20.0988 10.1349C20.3442 6.48312 17.5608 3.28116 13.9097 3.02585Z" fill="#2A2A2C" stroke="#2A2A2C" stroke-width="1.5" stroke-miterlimit="10" stroke-linecap="round"/>
<path d="M16.0383 20.0359C15.9107 21.8614 14.3097 23.2531 12.4841 23.1255C11.5763 23.062 10.7649 22.6243 10.2082 21.9839C9.65153 21.3435 9.33105 20.4791 9.39453 19.5713" fill="#2A2A2C"/>
<path d="M16.0383 20.0359C15.9107 21.8614 14.3097 23.2531 12.4841 23.1255C11.5763 23.062 10.7649 22.6243 10.2082 21.9839C9.65153 21.3435 9.33105 20.4791 9.39453 19.5713" stroke="#2A2A2C" stroke-width="1.5" stroke-miterlimit="10"/>
<circle cx="17.8102" cy="4.30102" r="4" transform="rotate(4 17.8102 4.30102)" fill="#EB5757"/>
</svg>
